<?xml version="1.0" encoding="UTF-8" standalone="no" ?>
<!DOCTYPE svg PUBLIC "-//W3C//DTD SVG 1.1//EN" "http://www.w3.org/Graphics/SVG/1.1/DTD/svg11.dtd">
<svg xmlns="http://www.w3.org/2000/svg" xmlns:xlink="http://www.w3.org/1999/xlink" version="1.1" width="640" height="640" viewBox="0 0 640 640" xml:space="preserve">
<desc>Created with Fabric.js 5.3.0</desc>
<defs>
</defs>
<g transform="matrix(1.0438561493 0 0 1.0438561493 319.6904434694 330.1545397421)" id="dyKjJq72piVJf5eIBLKPx"  >
<path style="stroke: none; stroke-width: 1; stroke-dasharray: none; stroke-linecap: butt; stroke-dashoffset: 0; stroke-linejoin: miter; stroke-miterlimit: 4; fill: rgb(255,243,18); fill-rule: nonzero; opacity: 1;" vector-effect="non-scaling-stroke"  transform=" translate(-300, -300.0015361521)" d="M 171.931 463.584 L 170.056 460.233 C 163.88500000000002 450.055 158.67600000000002 440.737 155.55900000000003 435.169 C 153.98700000000002 432.358 153.13800000000003 430.839 152.568 429.986 C 152.455 429.783 152.31500000000003 429.596 152.155 429.43 C 151.842 429.064 151.606 428.934 151.299 428.837 C 150.983 428.697 150.636 428.62 150.28300000000002 428.62 C 148.90400000000002 428.62 147.33900000000003 428.62 145.121 438.961 C 143.269 447.613 140.062 470.96000000000004 153.294 490.337 C 140.78500000000003 481.947 129.268 472.546 118.811 462.23199999999997 C 129.40200000000002 452.49399999999997 126.45400000000001 433.936 123.82300000000001 417.43999999999994 L 123.48 415.30199999999996 C 121.61500000000001 405.71399999999994 120.03 396.83799999999997 118.938 390.72999999999996 C 118.159 386.364 117.74600000000001 384.03599999999994 117.419 382.727 C 117.419 382.274 117.286 381.811 116.94 381.35799999999995 C 116.751 381.03899999999993 116.541 380.90199999999993 116.248 380.70899999999995 C 115.135 379.9769999999999 113.65 380.22299999999996 112.831 381.26899999999995 C 112.718 381.41499999999996 112.61800000000001 381.5729999999999 112.541 381.73199999999997 C 112.431 381.88199999999995 112.271 382.082 112.068 382.34099999999995 C 109.693 385.37899999999996 102.46 394.62399999999997 98.723 408.11199999999997 C 97.304 413.01699999999994 94.617 425.294 97.97 438.64199999999994 C 89.374 427.4649999999999 81.78399999999999 415.5419999999999 75.35 402.90299999999996 C 88.76499999999999 396.775 91.835 378.025 94.547 361.36299999999994 L 94.693 360.4429999999999 C 95.52199999999999 354.05499999999995 96.331 347.98099999999994 97.014 342.84099999999995 C 98.173 334.12199999999996 98.702 330.155 98.829 328.19499999999994 C 99.029 327.6809999999999 99.04899999999999 327.08899999999994 98.743 326.41599999999994 C 98.67 326.2029999999999 98.56299999999999 326.0609999999999 98.43599999999999 325.88699999999994 C 97.63 324.79499999999996 96.11099999999999 324.5319999999999 94.979 325.2679999999999 C 94.812 325.3769999999999 94.659 325.5069999999999 94.526 325.6479999999999 C 94.37299999999999 325.7539999999999 94.15899999999999 325.9009999999999 93.89 326.0839999999999 C 90.723 328.2559999999999 81.077 334.8629999999999 73.441 346.4499999999999 C 70.617 350.6159999999999 64.366 361.26099999999985 63.307 374.6219999999999 C 59.673 364.3349999999999 56.633 353.7329999999999 54.375 342.7829999999999 C 53.829 340.1359999999999 53.409 337.4809999999999 52.953 334.8299999999999 C 67.63 332.83899999999994 76.09 315.79999999999995 83.6 300.6499999999999 C 83.61 300.6269999999999 83.75 300.3499999999999 83.75999999999999 300.3229999999999 C 92.76199999999999 280.6429999999999 95.95299999999999 273.66599999999994 97.005 270.8949999999999 C 97.398 270.4359999999999 97.618 269.8229999999999 97.478 268.9969999999999 C 97.464 268.9039999999999 97.445 268.8209999999999 97.41799999999999 268.7269999999999 C 97.07199999999999 267.3719999999999 95.69999999999999 266.53899999999993 94.327 266.88499999999993 C 94.094 266.94199999999995 93.881 267.0279999999999 93.688 267.1379999999999 C 93.511 267.19499999999994 93.262 267.2709999999999 92.952 267.36799999999994 C 89.292 268.50699999999995 78.161 271.97099999999995 67.514 280.7459999999999 C 63.601 283.88699999999994 54.492 292.21599999999995 49.58 304.65099999999995 C 48.92 290.847 49.427 277.10599999999994 51.085 263.56399999999996 C 52.254 263.76699999999994 53.429 263.9 54.612 263.9 C 54.615 263.9 54.612 263.9 54.615 263.9 C 67.923 263.9 79.893 251.16799999999998 90.457 239.94099999999997 C 90.47399999999999 239.92099999999996 90.693 239.68499999999997 90.71 239.66499999999996 L 93.261 236.78099999999998 C 106.816 221.421 111.03899999999999 216.63799999999998 112.39099999999999 214.82299999999998 L 112.44399999999999 214.86599999999999 C 112.71699999999998 214.55599999999998 112.90399999999998 214.183 113.00699999999999 213.784 C 113.02699999999999 213.721 113.03699999999999 213.66 113.05 213.601 C 113.143 213.084 113.09 212.538 112.86999999999999 212.056 C 112.07799999999999 210.30100000000002 110.09899999999999 210.30100000000002 108.34799999999998 210.30100000000002 C 97.38999999999999 210.30100000000002 71.21999999999998 215.234 56.71299999999999 233.83700000000002 C 60.12699999999999 220.382 64.70299999999999 207.26000000000002 70.42099999999999 194.60500000000002 C 73.419 196.114 76.746 196.906 80.37199999999999 196.906 C 80.37199999999999 196.906 80.37199999999999 196.906 80.37499999999999 196.906 C 91.39899999999999 196.906 103.36499999999998 190.102 114.93499999999999 183.518 L 115.57799999999999 183.151 C 121.07699999999998 179.791 126.37199999999999 176.567 130.89399999999998 173.816 C 139.89299999999997 168.34 143.14399999999998 166.362 144.42199999999997 165.453 L 144.44199999999998 165.483 C 144.72199999999998 165.316 144.962 165.097 145.15499999999997 164.844 C 145.26099999999997 164.72 145.31799999999998 164.617 145.38199999999998 164.494 L 145.38199999999998 164.494 C 145.70499999999998 163.901 145.80799999999996 163.192 145.628 162.536 C 144.503 158.479 126.00499999999998 157.204 120.86999999999999 157.204 C 111.31799999999998 157.204 97.03399999999999 158.912 84.91099999999999 167.315 C 89.24399999999999 160.351 93.963 153.59 99.05599999999998 147.059 C 115.03899999999999 143.12199999999999 129.64299999999997 129.141 143.76999999999998 115.586 C 145.69199999999998 113.741 147.61299999999997 111.896 149.59499999999997 110.021 C 161.95399999999998 97.679 174.58299999999997 86.315 179.33199999999997 82.035 C 180.24099999999996 81.219 180.88099999999997 80.637 181.20999999999995 80.33 C 181.40299999999996 80.163 181.57299999999995 79.974 181.70999999999995 79.761 C 182.29599999999996 78.88799999999999 182.38999999999996 77.719 181.77699999999996 76.853 C 181.10799999999995 75.904 179.99799999999996 75.488 178.91899999999995 75.887 C 178.86299999999994 75.901 178.80599999999995 75.921 178.74999999999994 75.94 C 178.73599999999993 75.943 178.72699999999995 75.947 178.71299999999994 75.95 C 178.55299999999994 75.98700000000001 178.31299999999993 76.036 177.99299999999994 76.10600000000001 C 158.26699999999994 80.27900000000001 144.16899999999993 87.04700000000001 135.87599999999995 91.953 C 115.64999999999995 103.166 94.50499999999994 124.09200000000001 94.98799999999994 143.954 C 89.84199999999994 150.55800000000002 85.07299999999995 157.392 80.68699999999994 164.433 C 84.62099999999994 139.468 79.22899999999994 114.353 77.02999999999994 104.21199999999999 C 76.73399999999994 102.84599999999999 76.42699999999995 101.43799999999999 76.35699999999994 100.93099999999998 C 76.39399999999995 100.37799999999999 76.24699999999994 99.82199999999999 75.93399999999994 99.34899999999999 C 75.46099999999994 98.636 74.66199999999994 98.20599999999999 73.80299999999994 98.20599999999999 C 73.23699999999994 98.20599999999999 72.48999999999994 98.79199999999999 71.61499999999994 99.841 L 71.45099999999994 99.77499999999999 C 71.38499999999993 99.93799999999999 71.32799999999993 100.088 71.29099999999994 100.24799999999999 C 66.01599999999993 107.03599999999999 56.679999999999936 129.19299999999998 53.938999999999936 142.774 C 49.92199999999993 159.683 51.08199999999994 175.905 56.96299999999994 185.111 C 59.26799999999994 188.721 62.21799999999994 191.189 65.72599999999994 192.571 C 59.983999999999945 205.287 55.37199999999994 218.462 51.907999999999944 231.97 C 48.004999999999946 207.398 34.965999999999944 185.57999999999998 29.673999999999943 176.768 C 28.973999999999943 175.599 28.248999999999942 174.393 28.02199999999994 173.94 C 27.821999999999942 173.201 27.295999999999943 172.56799999999998 26.559999999999942 172.252 C 25.55099999999994 171.822 24.374999999999943 172.08200000000002 23.639999999999944 172.901 C 23.486999999999945 173.071 23.279999999999944 173.584 23.039999999999942 174.38600000000002 L 23.00699999999994 174.38300000000004 C 22.99999999999994 174.43600000000004 22.99699999999994 174.48900000000003 22.99299999999994 174.54000000000005 C 21.24799999999994 180.52500000000006 17.824999999999942 201.23000000000005 19.92299999999994 219.59800000000004 C 21.59099999999994 239.94000000000005 30.453999999999944 261.72400000000005 45.99399999999994 263.00000000000006 C 44.324999999999946 276.65500000000003 43.79599999999994 290.5060000000001 44.434999999999945 304.4270000000001 C 33.56799999999994 282.1500000000001 14.680999999999944 265.3380000000001 7.027999999999949 258.55300000000005 C 6.027999999999949 257.66700000000003 4.995999999999949 256.75800000000004 4.649999999999949 256.3980000000001 C 4.269999999999949 255.8050000000001 3.656999999999949 255.3820000000001 2.943999999999949 255.2520000000001 C 1.924999999999949 255.0750000000001 0.9129999999999487 255.51200000000009 0.349999999999949 256.3680000000001 C 0.17699999999994903 256.6310000000001 0.082999999999949 257.3040000000001 0.073999999999949 258.3200000000001 L 0 258.339 C 0.02 258.436 0.043 258.522 0.07 258.609 C 0.08 265.54999999999995 3.4299999999999997 286.35499999999996 10.264000000000001 302.085 C 16.542 317.852 29.175000000000004 336.26599999999996 44.101000000000006 336.26599999999996 L 44.101000000000006 336.26599999999996 C 45.397000000000006 336.26599999999996 46.672000000000004 336.07899999999995 47.928000000000004 335.789 C 48.391000000000005 338.467 48.81100000000001 341.144 49.364000000000004 343.815 C 51.669000000000004 354.986 54.766000000000005 365.796 58.46900000000001 376.291 C 46.91600000000001 363.895 30.427000000000007 352.774 9.11800000000001 343.069 C 7.929000000000009 342.526 6.703000000000009 341.97 6.27400000000001 341.73400000000004 C 5.7810000000000095 341.31700000000006 5.14900000000001 341.09400000000005 4.47600000000001 341.13000000000005 C 3.53000000000001 341.184 2.6940000000000097 341.75300000000004 2.29800000000001 342.6120000000001 C 2.1250000000000098 342.9820000000001 2.2180000000000097 343.7950000000001 2.5340000000000096 344.9570000000001 L 2.4380000000000095 345.0140000000001 C 2.5010000000000097 345.1200000000001 2.5640000000000094 345.2170000000001 2.6340000000000097 345.30700000000013 C 4.78200000000001 352.62400000000014 14.817000000000009 372.0100000000001 24.93500000000001 383.9040000000001 C 36.62800000000001 398.5540000000001 50.80600000000001 407.6570000000001 61.93900000000001 407.6570000000001 C 61.93900000000001 407.6570000000001 61.93900000000001 407.6570000000001 61.94200000000001 407.6570000000001 C 65.236 407.6570000000001 68.22000000000001 406.8870000000001 70.858 405.3760000000001 C 77.333 418.0810000000001 84.956 430.0810000000001 93.572 441.3450000000001 C 78.498 432.7790000000001 59.298 426.9100000000001 36.115 423.8430000000001 C 34.796 423.6700000000001 33.437000000000005 423.49000000000007 32.958 423.38700000000006 C 32.412 423.15400000000005 31.785999999999998 423.11100000000005 31.195999999999998 423.2900000000001 C 30.369999999999997 423.54300000000006 29.726999999999997 424.1960000000001 29.488 425.0250000000001 C 29.335 425.53800000000007 29.660999999999998 426.4330000000001 30.374 427.6200000000001 L 30.308 427.6990000000001 C 30.381 427.7600000000001 30.451 427.81600000000014 30.524 427.86900000000014 C 34.844 434.79400000000015 51.319 450.7330000000001 63.919000000000004 458.70300000000015 C 76.132 466.97500000000014 89.53 471.91500000000013 99.765 471.91500000000013 C 99.768 471.91500000000013 99.768 471.91500000000013 99.768 471.91500000000013 C 106.456 471.91500000000013 111.731 469.83700000000016 115.255 465.9230000000001 C 125.87299999999999 476.3840000000001 137.55599999999998 485.9260000000001 150.232 494.4520000000001 C 138.998 491.9710000000001 128.677 491.5080000000001 120.544 491.5080000000001 C 119.515 491.5080000000001 118.496 491.5150000000001 117.46 491.5280000000001 C 117.124 491.5390000000001 83.59299999999999 492.75700000000006 82.09799999999998 496.3540000000001 C 82.00499999999998 496.5870000000001 81.94499999999998 496.8310000000001 81.91799999999998 497.0740000000001 C 81.87199999999997 497.41700000000014 81.84499999999998 497.74600000000015 82.04199999999997 498.1660000000001 C 82.15799999999997 498.5130000000001 82.35199999999998 498.8320000000001 82.61099999999998 499.10500000000013 L 82.68099999999997 499.03500000000014 C 84.02299999999997 500.4280000000001 87.51399999999997 502.7350000000001 96.34599999999998 507.4780000000001 C 103.73299999999998 511.44400000000013 115.08999999999997 516.8530000000001 127.16899999999998 520.0800000000002 C 136.26399999999998 522.8180000000002 145.43699999999998 524.2670000000002 153.70299999999997 524.2670000000002 C 169.40299999999996 524.2670000000002 179.53399999999996 518.8780000000002 181.62199999999999 509.4800000000002 C 190.648 497.032 180.717 479.274 171.931 463.584 z M 70.739 284.716 C 77.949 278.771 85.433 275.438 90.285 273.65500000000003 C 87.554 279.72 82.828 290.048 79.014 298.377 C 72.55 311.41200000000003 65.323 325.98 54.589 329.24 C 62.452 313.051 72.09 298.244 83.327 285.202 C 84.246 284.133 84.126 282.517 83.054 281.59499999999997 C 81.982 280.669 80.369 280.792 79.45 281.86499999999995 C 68.653 294.39699999999993 59.291000000000004 308.50199999999995 51.521 323.86799999999994 C 50.39 302.974 65.543 288.882 70.739 284.716 z M 105.146 215.539 C 101.592 219.60899999999998 95.621 226.373 89.423 233.39299999999997 L 86.72500000000001 236.43399999999997 C 76.82000000000001 246.96799999999996 65.52300000000001 258.871 54.42000000000001 258.77099999999996 C 66.66300000000001 245.55599999999995 80.191 234.18599999999995 94.72500000000001 224.98699999999997 C 95.917 224.23099999999997 96.27000000000001 222.65199999999996 95.51700000000001 221.45699999999997 C 94.75800000000001 220.26499999999996 93.17900000000002 219.91199999999998 91.98700000000001 220.66399999999996 C 78.06900000000002 229.47699999999995 65.05000000000001 240.20699999999997 53.17400000000001 252.60999999999996 C 60.181 224.754 90.588 216.602 105.146 215.539 z M 137.211 163.977 C 134.81 165.446 131.639 167.374 128.235 169.446 C 123.71300000000001 172.197 118.41000000000001 175.424 112.97800000000001 178.745 L 112.40500000000002 179.071 C 101.41100000000002 185.325 90.04100000000001 191.793 80.36900000000001 191.79 C 78.39400000000002 191.79 76.58200000000001 191.5 74.89000000000001 190.94799999999998 C 90.65300000000002 181.76199999999997 107.17900000000002 174.73499999999999 124.10100000000001 170.08899999999997 C 125.46300000000001 169.71299999999997 126.26200000000001 168.30699999999996 125.88900000000001 166.94499999999996 C 125.516 165.58299999999997 124.10400000000001 164.79299999999998 122.745 165.15299999999996 C 106.552 169.59899999999996 90.71300000000001 176.15999999999997 75.546 184.66299999999995 C 91.474 158.132 125.238 161.393 137.211 163.977 z M 138.42 96.393 C 145.17399999999998 92.396 155.85799999999998 87.154 170.432 83.191 C 164.25799999999998 88.813 155.065 97.32900000000001 146.02999999999997 106.355 C 144.08799999999997 108.187 142.15599999999998 110.042 140.22499999999997 111.897 C 128.36899999999997 123.274 117.04499999999996 134.13400000000001 105.15899999999996 139.537 C 119.56999999999996 122.561 136.43499999999997 107.671 155.40599999999995 95.212 C 156.58499999999995 94.436 156.91799999999995 92.851 156.13899999999995 91.669 C 155.36599999999996 90.49 153.77799999999996 90.164 152.59799999999996 90.93599999999999 C 133.09199999999996 103.749 115.76599999999996 119.085 100.97599999999996 136.57299999999998 C 105.002 121.068 122.011 105.488 138.42 96.393 z M 61.273 182.358 C 56.111000000000004 174.278 55.211000000000006 159.565 58.935 143.875 C 61.806000000000004 129.661 68.527 115.477 72.59 107.899 C 75.617 122.18 81.715 155.301 70.58200000000001 182.191 C 68.551 163.824 68.84 145.02 71.47500000000001 126.17 C 71.67200000000001 124.771 70.69600000000001 123.479 69.29700000000001 123.282 C 67.86800000000001 123.089 66.60300000000001 124.062 66.41000000000001 125.464 C 63.509000000000015 146.226 63.41200000000001 166.935 66.05000000000001 187.101 C 64.211 186.031 62.612 184.453 61.273 182.358 z M 25.012 219.1 C 23.417 205.095 25.239 190.022 26.67 181.712 C 34.041000000000004 194.118 50.103 222.99599999999998 47.689 251.421 C 47.672 251.518 47.666 251.614 47.646 251.71099999999998 C 40.289 235.112 34.83 217.384 31.407 198.887 C 31.147 197.498 29.822 196.579 28.423000000000002 196.839 C 27.038 197.095 26.118000000000002 198.431 26.378 199.819 C 30.142 220.172 36.35 239.608 44.775 257.699 C 33.667 255.191 26.49 237.087 25.012 219.1 z M 14.987 300.119 C 9.402000000000001 287.26700000000005 6.737 272.50600000000003 5.662000000000001 264.20000000000005 C 28.536 284.92600000000004 42.071 305.18100000000004 46.08 324.56100000000004 C 34.31 310.939 23.941999999999997 295.66600000000005 15.212999999999997 279.03400000000005 C 14.553999999999997 277.7780000000001 13.004999999999997 277.29900000000004 11.755999999999997 277.958 C 10.506999999999996 278.61400000000003 10.023999999999997 280.15900000000005 10.683999999999997 281.41200000000003 C 20.272 299.68300000000005 31.819 316.33500000000004 44.994 331.03600000000006 C 44.694 331.05800000000005 44.405 331.14900000000006 44.101 331.14900000000006 C 34.237 331.149 22.274 318.42 14.987 300.119 z M 103.644 409.508 C 106.17200000000001 400.37199999999996 110.44500000000001 393.30899999999997 113.44200000000001 389.049 C 113.58900000000001 389.86199999999997 113.742 390.73499999999996 113.902 391.63 C 114.994 397.758 116.586 406.65999999999997 118.444 416.193 L 118.771 418.248 C 121.036 432.433 123.56 448.288 116.866 456.808 C 113.409 438.663 112.527 420.503 114.30799999999999 402.76099999999997 C 114.448 401.356 113.422 400.10099999999994 112.01599999999999 399.96 C 110.591 399.79699999999997 109.35799999999999 400.84299999999996 109.219 402.248 C 107.514 419.21 108.166 436.53499999999997 111.11699999999999 453.86699999999996 C 97.772 437.377 101.232 417.83 103.644 409.508 z M 77.692 349.293 C 82.86099999999999 341.45300000000003 89.04299999999999 336.045 93.166 332.9 C 92.833 335.464 92.39999999999999 338.70599999999996 91.94 342.166 C 91.25699999999999 347.312 90.448 353.39 89.628 359.701 L 89.495 360.54 C 87.17 374.82800000000003 84.563 390.791 75.381 397.03200000000004 C 78.012 379.134 82.861 361.99500000000006 89.862 346.03600000000006 C 90.431 344.74000000000007 89.842 343.23100000000005 88.54899999999999 342.66600000000005 C 87.25699999999999 342.1000000000001 85.74799999999999 342.68300000000005 85.17899999999999 343.97800000000007 C 78.45799999999998 359.2950000000001 73.66199999999999 375.6580000000001 70.85799999999999 392.71900000000005 C 63.525 372.899 73.929 354.842 77.692 349.293 z M 61.939 402.54 C 52.471000000000004 402.54 39.512 393.975 28.881 380.649 C 19.522 369.649 12.875 356.383 9.538 348.9 C 37.367000000000004 361.965 56.247 377.44899999999996 65.882 395.01599999999996 C 50.562000000000005 385.36499999999995 36.14500000000001 373.72099999999995 22.943000000000005 360.30999999999995 C 21.951000000000004 359.30699999999996 20.335000000000004 359.28799999999995 19.323000000000004 360.28399999999993 C 18.317000000000004 361.27199999999993 18.304000000000006 362.89099999999996 19.296000000000003 363.8999999999999 C 33.837 378.6679999999999 49.833 391.31999999999994 66.875 401.61099999999993 C 65.37 402.2169999999999 63.724000000000004 402.5399999999999 61.942 402.5399999999999 C 61.939 402.54 61.939 402.54 61.939 402.54 z M 99.764 466.798 C 90.515 466.798 78.18599999999999 462.189 66.722 454.422 C 54.205999999999996 446.509 43.705 435.56600000000003 38.212999999999994 429.297 C 68.81299999999999 433.71000000000004 91.893 443.18600000000004 107.05699999999999 457.49300000000005 C 89.08599999999998 452.61300000000006 71.48499999999999 445.55600000000004 54.618999999999986 436.44100000000003 C 53.37999999999999 435.778 51.82799999999999 436.23400000000004 51.155999999999985 437.47600000000006 C 50.48299999999998 438.7180000000001 50.945999999999984 440.2710000000001 52.18799999999999 440.94300000000004 C 70.80899999999998 451.00800000000004 90.32199999999999 458.59100000000007 110.24499999999999 463.58400000000006 C 107.71699999999998 465.6790000000001 104.24999999999999 466.79800000000006 99.767 466.79800000000006 C 99.767 466.798 99.767 466.798 99.764 466.798 z M 150.809 437.157 C 150.902 437.327 150.999 437.493 151.096 437.667 C 154.226 443.262 159.465 452.631 165.63400000000001 462.80199999999996 L 167.46900000000002 466.085 C 174.99900000000002 479.527 182.74900000000002 493.378 179.23900000000003 503.16999999999996 C 168.78100000000003 486.431 161.14100000000002 468.79299999999995 156.57900000000004 450.65899999999993 C 156.23600000000005 449.28599999999994 154.85400000000004 448.44699999999995 153.47500000000002 448.80099999999993 C 152.10600000000002 449.14699999999993 151.27700000000002 450.5349999999999 151.61700000000002 451.9049999999999 C 155.9 468.9369999999999 162.80700000000002 485.52899999999994 172.14900000000003 501.3719999999999 C 161.98100000000002 494.8539999999999 154.96700000000004 485.9759999999999 151.33700000000002 474.8149999999999 C 146.42 459.688 148.871 444.514 150.809 437.157 z M 153.7 519.149 C 146.04 519.149 137.141 517.74 128.565 515.159 C 113.388 511.103 98.874 503.303 91.304 498.73699999999997 C 97.179 497.92699999999996 106.761 496.89799999999997 117.554 496.64199999999994 C 118.543 496.62799999999993 119.535 496.6209999999999 120.541 496.6209999999999 C 133.197 496.6209999999999 151.328 497.75699999999995 169.685 506.4129999999999 C 149.889 506.8829999999999 129.95600000000002 505.1199999999999 110.303 501.1669999999999 C 108.925 500.90399999999994 107.569 501.7829999999999 107.292 503.1719999999999 C 107.012 504.5549999999999 107.912 505.9029999999999 109.294 506.18299999999994 C 127.245 509.79299999999995 145.426 511.6089999999999 163.537 511.6089999999999 C 167.52 511.6089999999999 171.50400000000002 511.4919999999999 175.477 511.3159999999999 C 171.325 518.313 159.215 519.149 153.7 519.149 z M 552.064 335.788 C 553.3199999999999 336.07800000000003 554.5949999999999 336.265 555.891 336.265 C 570.818 336.265 583.447 317.854 589.699 302.158 C 596.562 286.35900000000004 599.887 265.673 599.906 258.66200000000003 C 599.943 258.559 599.973 258.45300000000003 600 258.33900000000006 L 599.906 258.3190000000001 C 599.8929999999999 257.28600000000006 599.7929999999999 256.6000000000001 599.617 256.33700000000005 C 599.044 255.49800000000005 598.0279999999999 255.08200000000005 597.0219999999999 255.26500000000004 C 596.3159999999999 255.39800000000005 595.7159999999999 255.81800000000004 595.343 256.40400000000005 C 594.99 256.76400000000007 593.9639999999999 257.67300000000006 592.9649999999999 258.55500000000006 C 585.3159999999999 265.33900000000006 566.425 282.1480000000001 555.5579999999999 304.4290000000001 C 556.1979999999999 290.5080000000001 555.6669999999999 276.6570000000001 553.9989999999999 263.00200000000007 C 569.5389999999999 261.7300000000001 578.3969999999999 239.94500000000008 580.0619999999999 219.67900000000006 C 582.1109999999999 201.71100000000007 578.7439999999999 180.89600000000007 577.0049999999999 174.67200000000005 C 577.0049999999999 174.57900000000006 576.9979999999999 174.48500000000004 576.9909999999999 174.38900000000007 L 576.9249999999998 174.39200000000005 C 576.6779999999999 173.56200000000004 576.4719999999999 173.04000000000005 576.3249999999998 172.87600000000006 C 575.5789999999998 172.07400000000007 574.4069999999998 171.82700000000006 573.4079999999998 172.27000000000007 C 572.6809999999998 172.58600000000007 572.1619999999998 173.21200000000007 571.9689999999998 173.94900000000007 C 571.7399999999998 174.40200000000007 571.0169999999998 175.60400000000007 570.3179999999999 176.77300000000008 C 565.0259999999998 185.5850000000001 551.9869999999999 207.3990000000001 548.0839999999998 231.9720000000001 C 544.6199999999998 218.46400000000008 540.0079999999998 205.2880000000001 534.2659999999998 192.5730000000001 C 537.7729999999998 191.1910000000001 540.7239999999998 188.7230000000001 543.0289999999999 185.11300000000008 C 548.9109999999998 175.9070000000001 550.0699999999999 159.6850000000001 546.0729999999999 142.86300000000008 C 543.3119999999999 129.1980000000001 534.0229999999999 107.17400000000009 528.7209999999999 100.32000000000008 C 528.685 100.13700000000007 528.6239999999999 99.96700000000008 528.5479999999999 99.77800000000008 L 528.3549999999999 99.86100000000008 C 527.4619999999999 98.79500000000007 526.7499999999999 98.20200000000007 526.1239999999999 98.21600000000008 C 525.2779999999999 98.23600000000008 524.4949999999999 98.67500000000008 524.036 99.38800000000008 C 523.732 99.85400000000007 523.5989999999999 100.40000000000008 523.6329999999999 100.94000000000008 C 523.56 101.45000000000009 523.257 102.85800000000009 522.9599999999999 104.22400000000009 C 520.762 114.3650000000001 515.377 139.4740000000001 519.31 164.4350000000001 C 514.92 157.3940000000001 510.15199999999993 150.5600000000001 505.006 143.95600000000007 C 505.488 124.09300000000007 484.347 103.16800000000008 464.178 91.99100000000007 C 455.825 87.04900000000006 441.728 80.28100000000006 422.001 76.10800000000008 C 421.661 76.03500000000008 421.41499999999996 76.00500000000008 421.395 75.99500000000008 C 421.34799999999996 75.97500000000008 421.29499999999996 75.95800000000007 421.246 75.94100000000007 C 420.16999999999996 75.57500000000007 418.984 75.96100000000007 418.332 76.89400000000008 C 418.045 77.30000000000008 417.892 77.77300000000008 417.872 78.24600000000008 L 417.865 78.24600000000008 C 417.829 79.05600000000008 418.185 79.82500000000007 418.784 80.33100000000007 C 419.114 80.63800000000008 419.754 81.22000000000007 420.663 82.03600000000007 C 425.41200000000003 86.31600000000007 438.041 97.68000000000008 450.45 110.07200000000007 C 452.382 111.89700000000008 454.304 113.74200000000008 456.22499999999997 115.58700000000007 C 470.35299999999995 129.14200000000008 484.95599999999996 143.12300000000008 500.93999999999994 147.06000000000006 C 506.0319999999999 153.59100000000007 510.75199999999995 160.35200000000006 515.0849999999999 167.31600000000006 C 502.96199999999993 158.91300000000007 488.67799999999994 157.20500000000007 479.1259999999999 157.20500000000007 C 473.9899999999999 157.20500000000007 455.49299999999994 158.48000000000008 454.3669999999999 162.53700000000006 C 454.1869999999999 163.19300000000007 454.2899999999999 163.90200000000007 454.6129999999999 164.49500000000006 L 454.6129999999999 164.49500000000006 C 454.6759999999999 164.61900000000006 454.7329999999999 164.72200000000007 454.83999999999986 164.84500000000006 C 455.03299999999984 165.09800000000004 455.2739999999999 165.31800000000007 455.5529999999999 165.48400000000007 L 455.5739999999999 165.45400000000006 C 456.8519999999999 166.36300000000006 460.1029999999999 168.34100000000007 469.1009999999999 173.81700000000006 C 473.6239999999999 176.56800000000007 478.91899999999987 179.79200000000006 484.4879999999999 183.19500000000005 L 485.05399999999986 183.51800000000006 C 496.63099999999986 190.09900000000005 508.59699999999987 196.90600000000006 519.6239999999999 196.90600000000006 C 523.247 196.90600000000006 526.5779999999999 196.11400000000006 529.5749999999999 194.60500000000008 C 535.294 207.26100000000008 539.8699999999999 220.38300000000007 543.2829999999999 233.83700000000007 C 528.7719999999999 215.23300000000006 502.6049999999999 210.30100000000007 491.6479999999999 210.30100000000007 C 489.8959999999999 210.30100000000007 487.9179999999999 210.30100000000007 487.1249999999999 212.05600000000007 C 486.90499999999986 212.53900000000007 486.8529999999999 213.08500000000006 486.9449999999999 213.60100000000006 C 486.9589999999999 213.66100000000006 486.9679999999999 213.72100000000006 486.98899999999986 213.78400000000005 C 487.09199999999987 214.18300000000005 487.27799999999985 214.55600000000004 487.55199999999985 214.86600000000004 L 487.6059999999998 214.82300000000004 C 488.9579999999998 216.63800000000003 493.1809999999998 221.42100000000005 506.7359999999998 236.78100000000003 L 509.2869999999998 239.66500000000002 C 509.3039999999998 239.68500000000003 509.5229999999998 239.92100000000002 509.5399999999998 239.94100000000003 C 520.1039999999998 251.17100000000002 532.0739999999998 263.90000000000003 545.3859999999997 263.90000000000003 C 546.5689999999997 263.90000000000003 547.7439999999997 263.76700000000005 548.9129999999998 263.564 C 550.5709999999998 277.10200000000003 551.0779999999997 290.843 550.4179999999998 304.648 C 545.5089999999998 292.21900000000005 536.4099999999997 283.89300000000003 532.5109999999997 280.766 C 521.8359999999998 271.97 510.70599999999973 268.507 507.04599999999976 267.368 C 506.73599999999976 267.271 506.48599999999976 267.195 506.3099999999998 267.138 C 506.1169999999998 267.02799999999996 505.90399999999977 266.94199999999995 505.6699999999998 266.885 C 504.3119999999998 266.538 502.9299999999998 267.371 502.5799999999998 268.727 C 502.5529999999998 268.82 502.5329999999998 268.90299999999996 502.51899999999983 268.99699999999996 C 502.37899999999985 269.823 502.5989999999998 270.436 502.99199999999985 270.895 C 504.04499999999985 273.666 507.23499999999984 280.643 516.2379999999998 300.323 C 516.2479999999998 300.34999999999997 516.3869999999998 300.626 516.3969999999998 300.65 C 523.9079999999998 315.79999999999995 532.3669999999998 332.839 547.0439999999999 334.83 C 546.5869999999999 337.481 546.1679999999999 340.13599999999997 545.6209999999999 342.78299999999996 C 543.3629999999998 353.73299999999995 540.3219999999999 364.33099999999996 536.6889999999999 374.61899999999997 C 535.6289999999999 361.26399999999995 529.3879999999998 350.626 526.5709999999998 346.476 C 518.9179999999998 334.863 509.2719999999998 328.255 506.1049999999998 326.08299999999997 C 505.8349999999998 325.9 505.62299999999976 325.75399999999996 505.46899999999977 325.647 C 505.33499999999975 325.506 505.1819999999998 325.376 505.0159999999998 325.267 C 503.8829999999998 324.531 502.3649999999998 324.794 501.5589999999998 325.886 C 501.4319999999998 326.06 501.3259999999998 326.202 501.2519999999998 326.415 C 500.94499999999977 327.088 500.9659999999998 327.68100000000004 501.16599999999977 328.194 C 501.29199999999975 330.15500000000003 501.82099999999974 334.122 502.9799999999998 342.84000000000003 C 503.6629999999998 347.98 504.4719999999998 354.05400000000003 505.31499999999977 360.526 L 505.44799999999975 361.362 C 508.15899999999976 378.024 511.22999999999973 396.774 524.6449999999998 402.90200000000004 C 518.2099999999998 415.53800000000007 510.62399999999974 427.46100000000007 502.02799999999974 438.641 C 505.37899999999973 425.296 502.6969999999997 413.02700000000004 501.2789999999997 408.141 C 497.5349999999997 394.622 490.3009999999997 385.377 487.9259999999997 382.339 C 487.72299999999973 382.079 487.5639999999997 381.88 487.4529999999997 381.73 C 487.37699999999967 381.571 487.27599999999967 381.41400000000004 487.16299999999967 381.267 C 486.34099999999967 380.221 484.85799999999966 379.975 483.7459999999997 380.707 C 483.4529999999997 380.9 483.2429999999997 381.037 483.0539999999997 381.356 C 482.7069999999997 381.80899999999997 482.5749999999997 382.272 482.5749999999997 382.725 C 482.2489999999997 384.03400000000005 481.83599999999973 386.362 481.0559999999997 390.728 C 479.9629999999997 396.836 478.3779999999997 405.712 476.4959999999997 415.39 L 476.1699999999997 417.438 C 473.53799999999967 433.93399999999997 470.59099999999967 452.49199999999996 481.1819999999997 462.23 C 470.7249999999997 472.54400000000004 459.2079999999997 481.946 446.69899999999967 490.33500000000004 C 459.9309999999997 470.958 456.72399999999965 447.61100000000005 454.8719999999997 438.95900000000006 C 452.65399999999966 428.61800000000005 451.08899999999966 428.61800000000005 449.7099999999997 428.61800000000005 C 449.3569999999997 428.61800000000005 449.0109999999997 428.69500000000005 448.6939999999997 428.83500000000004 C 448.38699999999966 428.932 448.15099999999967 429.062 447.83899999999966 429.42800000000005 C 447.67899999999963 429.59400000000005 447.53899999999965 429.78100000000006 447.42599999999965 429.98400000000004 C 446.85699999999963 430.83700000000005 446.00699999999966 432.35600000000005 444.43499999999966 435.16700000000003 C 441.31799999999964 440.735 436.10899999999964 450.05400000000003 429.88799999999964 460.31500000000005 L 428.06299999999965 463.58200000000005 C 419.27699999999965 479.27200000000005 409.34599999999966 497.03000000000003 418.37499999999966 509.47600000000006 C 420.4629999999997 518.874 430.5949999999997 524.263 446.29399999999964 524.263 C 454.56099999999964 524.263 463.7349999999996 522.815 472.75099999999964 520.1 C 484.90699999999964 516.85 496.26499999999965 511.44100000000003 503.64499999999964 507.475 C 512.4409999999997 502.752 515.9409999999997 500.444 517.2929999999997 499.048 L 517.3659999999996 499.118 C 517.6359999999996 498.842 517.8319999999997 498.512 517.9519999999997 498.162 C 518.1479999999997 497.739 518.1179999999997 497.409 518.0719999999997 497.066 C 518.0489999999996 496.827 517.9919999999996 496.589 517.8979999999997 496.364 C 517.3089999999996 494.92499999999995 517.1689999999996 494.585 506.0419999999997 493.233 C 500.6639999999997 492.58 492.22099999999966 491.754 482.5099999999997 491.524 C 481.4999999999997 491.511 480.4819999999997 491.504 479.4519999999997 491.504 C 471.31899999999973 491.504 460.9979999999997 491.96700000000004 449.7639999999997 494.44800000000004 C 462.4399999999997 485.922 474.12199999999973 476.38000000000005 484.7409999999997 465.91900000000004 C 488.2639999999997 469.833 493.5399999999997 471.91100000000006 500.2299999999997 471.91100000000006 C 510.4609999999997 471.91100000000006 523.8599999999997 466.97200000000004 536.0059999999996 458.7420000000001 C 548.6639999999996 450.73500000000007 565.1099999999997 434.8230000000001 569.4459999999997 427.88200000000006 C 569.5289999999997 427.82500000000005 569.6089999999997 427.76300000000003 569.6929999999996 427.69300000000004 L 569.6159999999996 427.60600000000005 C 570.3259999999997 426.41800000000006 570.6519999999996 425.51800000000003 570.4989999999997 425.00200000000007 C 570.2519999999997 424.18000000000006 569.6059999999997 423.5330000000001 568.7799999999996 423.2870000000001 C 568.1969999999997 423.1070000000001 567.5809999999997 423.1470000000001 567.0319999999996 423.3870000000001 C 566.5529999999995 423.4880000000001 565.1969999999995 423.6670000000001 563.8809999999996 423.8400000000001 C 540.6979999999996 426.9070000000001 521.4979999999996 432.7730000000001 506.42099999999965 441.3380000000001 C 515.0399999999996 430.0780000000001 522.6599999999996 418.0780000000001 529.1349999999996 405.37300000000005 C 531.7729999999997 406.88500000000005 534.7569999999996 407.65400000000005 538.0539999999996 407.65400000000005 C 549.1879999999996 407.65400000000005 563.3659999999996 398.55100000000004 575.0079999999996 383.96500000000003 C 585.1729999999995 372.01200000000006 595.1639999999995 352.70200000000006 597.3319999999995 345.338 C 597.4159999999995 345.238 597.4849999999996 345.132 597.5589999999995 345.012 L 597.4459999999995 344.942 C 597.7619999999995 343.77 597.8559999999994 342.951 597.6759999999995 342.581 C 597.2689999999994 341.735 596.4299999999995 341.18 595.4939999999995 341.13300000000004 C 594.8449999999995 341.076 594.2049999999995 341.32200000000006 593.7189999999995 341.73600000000005 C 593.2859999999995 341.96900000000005 592.0639999999995 342.52900000000005 590.8779999999995 343.06800000000004 C 569.5659999999995 352.773 553.0809999999994 363.89000000000004 541.5239999999994 376.29 C 545.2269999999994 365.79600000000005 548.3249999999995 354.985 550.6279999999995 343.814 C 551.183 341.144 551.602 338.466 552.064 335.788 z M 432.525 466.085 L 434.31 462.885 C 440.528 452.631 445.766 443.262 448.897 437.667 C 448.99399999999997 437.493 449.09 437.327 449.183 437.157 C 451.121 444.513 453.573 459.687 448.658 474.81399999999996 C 445.02700000000004 485.974 438.01300000000003 494.85299999999995 427.845 501.371 C 437.187 485.52799999999996 444.09400000000005 468.936 448.377 451.904 C 448.717 450.53499999999997 447.88800000000003 449.146 446.519 448.8 C 445.14 448.446 443.761 449.285 443.415 450.658 C 438.85200000000003 468.79200000000003 431.21200000000005 486.42900000000003 420.754 503.16900000000004 C 417.245 493.378 424.995 479.527 432.525 466.085 z M 482.415 496.643 C 493.219 496.89899999999994 502.808 497.928 508.689 498.738 C 501.105 503.303 486.571 511.114 471.351 515.183 C 462.855 517.741 453.953 519.15 446.292 519.15 C 440.777 519.15 428.667 518.314 424.515 511.31699999999995 C 428.488 511.49299999999994 432.471 511.60999999999996 436.454 511.60999999999996 C 454.565 511.60999999999996 472.749 509.79499999999996 490.697 506.18399999999997 C 492.079 505.905 492.978 504.556 492.698 503.17299999999994 C 492.419 501.78399999999993 491.05899999999997 500.905 489.68699999999995 501.16799999999995 C 470.03799999999995 505.11799999999994 450.102 506.87699999999995 430.30899999999997 506.41399999999993 C 448.669 497.7579999999999 466.79299999999995 496.62199999999996 479.45 496.62199999999996 C 480.457 496.622 481.449 496.629 482.415 496.643 z M 510.498 360.54 L 510.37399999999997 359.78400000000005 C 509.54499999999996 353.38900000000007 508.73499999999996 347.31100000000004 508.05299999999994 342.16600000000005 C 507.59399999999994 338.7060000000001 507.15999999999997 335.46500000000003 506.82699999999994 332.90000000000003 C 510.95399999999995 336.047 517.1389999999999 341.46000000000004 522.3199999999999 349.32000000000005 C 526.0669999999999 354.84400000000005 536.468 372.89900000000006 529.1339999999999 392.7180000000001 C 526.329 375.65600000000006 521.5329999999999 359.2940000000001 514.8129999999999 343.9770000000001 C 514.2479999999998 342.6820000000001 512.7419999999998 342.0990000000001 511.44299999999987 342.6650000000001 C 510.1509999999999 343.2300000000001 509.56099999999986 344.7390000000001 510.1299999999999 346.0350000000001 C 517.1309999999999 361.9940000000001 521.9799999999999 379.1330000000001 524.6109999999999 397.03100000000006 C 515.43 390.791 512.822 374.828 510.498 360.54 z M 481.223 418.247 L 481.536 416.28200000000004 C 483.407 406.66 485 397.75800000000004 486.092 391.63000000000005 C 486.252 390.73400000000004 486.405 389.86500000000007 486.55199999999996 389.04900000000004 C 489.549 393.309 493.825 400.38300000000004 496.35999999999996 409.538 C 498.76099999999997 417.83 502.222 437.377 488.87699999999995 453.866 C 491.828 436.534 492.48099999999994 419.209 490.775 402.24699999999996 C 490.635 400.842 489.37699999999995 399.79599999999994 487.977 399.95899999999995 C 486.572 400.09999999999997 485.546 401.35499999999996 485.686 402.75999999999993 C 487.46799999999996 420.50199999999995 486.585 438.6619999999999 483.128 456.8069999999999 C 476.434 448.287 478.958 432.432 481.223 418.247 z M 533.204 454.466 C 521.808 462.189 509.47799999999995 466.798 500.2289999999999 466.798 C 495.7469999999999 466.798 492.2799999999999 465.679 489.7489999999999 463.584 C 509.6719999999999 458.592 529.185 451.009 547.805 440.943 C 549.048 440.27099999999996 549.511 438.71799999999996 548.838 437.476 C 548.165 436.23400000000004 546.6129999999999 435.778 545.3739999999999 436.441 C 528.5089999999999 445.556 510.9039999999999 452.613 492.9329999999999 457.493 C 508.10699999999986 443.179 531.2059999999999 433.7 561.8399999999999 429.287 C 556.211 435.688 545.507 446.686 533.204 454.466 z M 590.455 348.9 C 587.104 356.397 580.44 369.68199999999996 571.0590000000001 380.71299999999997 C 560.4780000000001 393.97499999999997 547.5230000000001 402.53999999999996 538.0540000000001 402.53999999999996 C 536.2690000000001 402.53999999999996 534.623 402.21799999999996 533.118 401.611 C 550.1600000000001 391.32 566.1560000000001 378.668 580.696 363.9 C 581.6890000000001 362.89099999999996 581.6750000000001 361.272 580.6700000000001 360.284 C 579.657 359.288 578.042 359.307 577.0500000000001 360.31 C 563.8480000000001 373.721 549.431 385.365 534.1110000000001 395.016 C 543.742 377.449 562.626 361.966 590.455 348.9 z M 594.332 264.2 C 593.249 272.52299999999997 590.575 287.307 584.977 300.192 C 577.72 318.42 565.756 331.149 555.8919999999999 331.149 C 555.5889999999999 331.149 555.299 331.058 554.9989999999999 331.036 C 568.1739999999999 316.335 579.7209999999999 299.683 589.31 281.412 C 589.9689999999999 280.15999999999997 589.486 278.614 588.237 277.95799999999997 C 586.985 277.29799999999994 585.4399999999999 277.77799999999996 584.781 279.034 C 576.0519999999999 295.666 565.683 310.93899999999996 553.914 324.561 C 557.923 305.182 571.458 284.929 594.332 264.2 z M 573.31 181.735 C 574.7289999999999 189.835 576.6339999999999 204.61800000000002 574.972 219.17900000000003 C 573.5029999999999 237.09400000000002 566.326 255.19100000000003 555.2189999999999 257.699 C 563.645 239.608 569.853 220.17200000000003 573.616 199.81900000000002 C 573.876 198.43 572.957 197.09500000000003 571.571 196.83900000000003 C 570.169 196.57900000000004 568.846 197.49800000000002 568.587 198.88700000000003 C 565.163 217.38500000000002 559.705 235.11300000000003 552.348 251.711 C 552.328 251.61800000000002 552.322 251.518 552.305 251.425 C 549.89 223.02 565.93 194.161 573.31 181.735 z M 527.413 107.859 C 531.479 115.402 538.16 129.513 541.078 143.96099999999998 C 544.781 159.564 543.882 174.278 538.72 182.35699999999997 C 537.381 184.45199999999997 535.782 186.02999999999997 533.9440000000001 187.09999999999997 C 536.5830000000001 166.93399999999997 536.4860000000001 146.22499999999997 533.585 125.46299999999997 C 533.389 124.06099999999996 532.104 123.08799999999997 530.697 123.28099999999996 C 529.299 123.47799999999997 528.323 124.76999999999997 528.519 126.16899999999997 C 531.154 145.01999999999998 531.443 163.82299999999998 529.412 182.18999999999997 C 518.264 155.281 524.386 122.127 527.413 107.859 z M 454.013 106.404 C 444.94199999999995 97.342 435.73999999999995 88.816 429.561 83.191 C 444.135 87.154 454.83 92.403 461.637 96.43 C 477.992 105.492 494.994 121.069 499.01800000000003 136.572 C 484.22700000000003 119.084 466.903 103.747 447.396 90.935 C 446.22 90.163 444.62800000000004 90.489 443.856 91.668 C 443.077 92.85000000000001 443.40999999999997 94.436 444.588 95.21100000000001 C 463.559 107.67000000000002 480.42400000000004 122.561 494.834 139.536 C 482.948 134.13400000000001 471.625 123.273 459.769 111.896 C 457.837 110.041 455.905 108.186 454.013 106.404 z M 487.584 179.071 L 487.084 178.788 C 481.583 175.424 476.28000000000003 172.197 471.758 169.446 C 468.35499999999996 167.374 465.18399999999997 165.446 462.782 163.977 C 474.75899999999996 161.393 508.519 158.132 524.4449999999999 184.663 C 509.27799999999996 176.161 493.43899999999996 169.60000000000002 477.2459999999999 165.15300000000002 C 475.8879999999999 164.793 474.4749999999999 165.58300000000003 474.1019999999999 166.94500000000002 C 473.7289999999999 168.30700000000002 474.5279999999999 169.71300000000002 475.88999999999993 170.08900000000003 C 492.81199999999995 174.735 509.3379999999999 181.76200000000003 525.1009999999999 190.94800000000004 C 523.4099999999999 191.50100000000003 521.5969999999999 191.79000000000005 519.6219999999998 191.79000000000005 C 509.951 191.79 498.581 185.322 487.584 179.071 z M 513.122 236.281 L 510.56999999999994 233.393 C 504.37299999999993 226.372 498.40099999999995 219.608 494.8469999999999 215.539 C 509.4049999999999 216.60199999999998 539.8119999999999 224.754 546.819 252.60999999999999 C 534.943 240.208 521.923 229.47699999999998 508.006 220.664 C 506.82 219.91199999999998 505.23499999999996 220.265 504.477 221.457 C 503.724 222.652 504.077 224.231 505.26899999999995 224.987 C 519.803 234.186 533.332 245.552 545.5749999999999 258.768 C 534.457 258.858 523.173 246.972 513.122 236.281 z M 520.889 298.198 C 517.139 289.995 512.433 279.71099999999996 509.708 273.65599999999995 C 514.561 275.441 522.048 278.77899999999994 529.2810000000001 284.73699999999997 C 534.45 288.88699999999994 549.6030000000001 302.97499999999997 548.4710000000001 323.86899999999997 C 540.7000000000002 308.503 531.3390000000002 294.39799999999997 520.5410000000002 281.866 C 519.6220000000002 280.793 518.0070000000002 280.66999999999996 516.9370000000001 281.596 C 515.8650000000001 282.51800000000003 515.7450000000001 284.134 516.6650000000001 285.20300000000003 C 527.9010000000001 298.245 537.5400000000001 313.052 545.403 329.24100000000004 C 534.67 325.977 527.43 311.393 520.889 298.198 z" stroke-linecap="round" />
</g>
</svg>